<svg width="27" height="17" viewBox="0 0 27 17" fill="none" xmlns="http://www.w3.org/2000/svg">
  <rect width="27" height="17" rx="2" fill="#FA0000" />
  <path d="M4.52 13C4.45067 13 4.39 12.974 4.338 12.922C4.286 12.87 4.26 12.8093 4.26 12.74C4.26 12.6707 4.26433 12.623 4.273 12.597L7.497 4.186C7.56633 3.99533 7.705 3.9 7.913 3.9H8.797C9.005 3.9 9.14367 3.99533 9.213 4.186L12.424 12.597L12.45 12.74C12.45 12.8093 12.424 12.87 12.372 12.922C12.32 12.974 12.2593 13 12.19 13H11.527C11.4317 13 11.358 12.9783 11.306 12.935C11.254 12.883 11.2193 12.831 11.202 12.779L10.487 10.933H6.223L5.508 12.779C5.49067 12.831 5.45167 12.883 5.391 12.935C5.339 12.9783 5.26967 13 5.183 13H4.52ZM10.11 9.815L8.355 5.2L6.6 9.815H10.11Z" fill="white" />
  <path d="M20.43 13C20.3433 13 20.2697 12.974 20.209 12.922C20.157 12.8613 20.131 12.7877 20.131 12.701V4.199C20.131 4.11233 20.157 4.043 20.209 3.991C20.2697 3.93033 20.3433 3.9 20.43 3.9H21.119C21.2057 3.9 21.275 3.93033 21.327 3.991C21.3877 4.043 21.418 4.11233 21.418 4.199V12.701C21.418 12.7877 21.3877 12.8613 21.327 12.922C21.275 12.974 21.2057 13 21.119 13H20.43Z" fill="white" />
  <path d="M13.54 13C13.4467 13 13.3673 12.972 13.302 12.916C13.246 12.8507 13.218 12.7713 13.218 12.678V3.522C13.218 3.42867 13.246 3.354 13.302 3.298C13.3673 3.23267 13.4467 3.2 13.54 3.2H14.282C14.3753 3.2 14.45 3.23267 14.506 3.298C14.5713 3.354 14.604 3.42867 14.604 3.522V12.678C14.604 12.7713 14.5713 12.8507 14.506 12.916C14.45 12.972 14.3753 13 14.282 13H13.54Z" fill="white" />
  <path d="M19.2632 6.71276L14 9.38579L14.0204 4.00001L19.2632 6.71276Z" fill="#FAFAFA" />
</svg>
